<?xml version="1.0" standalone="no"?>
<!DOCTYPE svg PUBLIC "-//W3C//DTD SVG 1.1//EN" "http://www.w3.org/Graphics/SVG/1.1/DTD/svg11.dtd" >
<svg xmlns="http://www.w3.org/2000/svg">
<metadata>Generated by IcoMoon</metadata>
<defs>
<font id="toolbar-icons" horiz-adv-x="1024">
<font-face units-per-em="1024" ascent="960" descent="-64" />
<missing-glyph horiz-adv-x="1024" />
<glyph unicode="&#x20;" horiz-adv-x="512" d="" />
<glyph unicode="&#xe900;" glyph-name="circle" d="M532.48-38.006c-253.302 3.915-458.805 203.244-472.561 453.66l-0.054 1.233 78.769 5.12c10.828-210.521 182.187-377.626 393.459-381.631l0.387-0.006c218.618 5.032 393.918 183.446 393.918 402.804 0 2.666-0.026 5.326-0.077 7.98l0.006-0.397c0.050 2.374 0.079 5.172 0.079 7.977 0 219.361-175.303 397.777-393.458 402.796l-0.467 0.008c-186.589-2.208-341.966-133.188-381.527-308.096l-0.504-2.649-76.8 18.117c47.905 213.030 234.839 370.018 458.679 371.396l0.152 0.001c262.122-5.053 472.675-218.733 472.675-481.59 0-2.661-0.022-5.317-0.065-7.967l0.005 0.4c0.038-2.251 0.059-4.906 0.059-7.567 0-262.857-210.553-476.537-472.203-481.583l-0.472-0.007zM98.462 392.074h-3.545c-52.958 0.996-95.508 44.161-95.508 97.264 0 53.726 43.554 97.28 97.28 97.28s97.28-43.554 97.28-97.28c0-53.103-42.549-96.268-95.415-97.262l-0.093-0.001zM98.462 533.858c-0.009 0-0.019 0-0.029 0-23.373 0-42.422-18.509-43.292-41.669l-0.002-0.079c-0.011-0.36-0.017-0.784-0.017-1.21 0-23.379 18.518-42.432 41.686-43.293l0.078-0.002c0.394-0.013 0.858-0.020 1.323-0.020 11.476 0 21.937 4.343 29.829 11.476l-0.039-0.034c8.397 7.92 13.625 19.12 13.625 31.542 0 23.317-18.42 42.331-41.502 43.285l-0.086 0.003z" />
<glyph unicode="&#xe901;" glyph-name="delete" d="M384.931 134.749v465.455c0.003 0.14 0.005 0.305 0.005 0.471 0 11.311-9.169 20.48-20.48 20.48-0.166 0-0.331-0.002-0.495-0.006h-42.332c-0.14 0.003-0.305 0.005-0.471 0.005-11.311 0-20.48-9.169-20.48-20.48 0-0.166 0.002-0.331 0.006-0.495v0.024-465.455c-0.003-0.14-0.005-0.305-0.005-0.471 0-11.311 9.169-20.48 20.48-20.48 0.166 0 0.331 0.002 0.495 0.006h42.332c0.14-0.003 0.305-0.005 0.471-0.005 11.311 0 20.48 9.169 20.48 20.48 0 0.166-0.002 0.331-0.006 0.495v-0.024zM554.356 134.749v465.455c0.003 0.14 0.005 0.305 0.005 0.471 0 11.311-9.169 20.48-20.48 20.48-0.166 0-0.331-0.002-0.495-0.006h-42.332c-0.14 0.003-0.305 0.005-0.471 0.005-11.311 0-20.48-9.169-20.48-20.48 0-0.166 0.002-0.331 0.006-0.495v0.024-465.455c-0.003-0.14-0.005-0.305-0.005-0.471 0-11.311 9.169-20.48 20.48-20.48 0.166 0 0.331 0.002 0.495 0.006h42.332c0.14-0.003 0.305-0.005 0.471-0.005 11.311 0 20.48 9.169 20.48 20.48 0 0.166-0.002 0.331-0.006 0.495v-0.024zM723.782 134.749v465.455c0.003 0.14 0.005 0.305 0.005 0.471 0 11.311-9.169 20.48-20.48 20.48-0.166 0-0.331-0.002-0.495-0.006h-42.332c-0.14 0.003-0.305 0.005-0.471 0.005-11.311 0-20.48-9.169-20.48-20.48 0-0.166 0.002-0.331 0.006-0.495v0.024-465.455c-0.003-0.14-0.005-0.305-0.005-0.471 0-11.311 9.169-20.48 20.48-20.48 0.166 0 0.331 0.002 0.495 0.006h42.332c0.14-0.003 0.305-0.005 0.471-0.005 11.311 0 20.48 9.169 20.48 20.48 0 0.166-0.002 0.331-0.006 0.495v-0.024zM363.985 790.575h296.029l-31.651 76.335c-2.64 3.713-6.53 6.389-11.046 7.423l-0.125 0.024h-209.455c-4.823-0.946-8.891-3.646-11.599-7.393l-0.038-0.055zM977.455 769.629v-42.356c0.003-0.14 0.005-0.305 0.005-0.471 0-11.311-9.169-20.48-20.48-20.48-0.166 0-0.331 0.002-0.495 0.006h-63.743v-626.967c0.005-0.465 0.008-1.014 0.008-1.563 0-34.617-11.736-66.494-31.447-91.867l0.254 0.339c-16.74-23.913-43.964-39.494-74.856-40.028l-0.082-0.001h-549.702c-0.21-0.002-0.457-0.003-0.705-0.003-29.941 0-56.58 14.135-73.609 36.096l-0.158 0.212c-19.459 24.43-31.223 55.743-31.223 89.803 0 1.156 0.014 2.309 0.041 3.459l-0.003-0.171v630.691h-63.767c-0.14-0.003-0.305-0.005-0.471-0.005-11.311 0-20.48 9.169-20.48 20.48 0 0.166 0.002 0.331 0.006 0.495v-0.024 42.356c-0.003 0.14-0.005 0.305-0.005 0.471 0 11.311 9.169 20.48 20.48 20.48 0.166 0 0.331-0.002 0.495-0.006h204.311l46.545 110.313c7.682 17.523 20.022 31.81 35.465 41.667l0.375 0.224c14.508 10.43 32.535 16.823 52.035 17.22l0.096 0.002h211.782c19.596-0.399 37.623-6.792 52.409-17.412l-0.278 0.19c15.758-9.965 28.084-24.088 35.604-40.836l0.236-0.589 46.545-110.313h204.335c0.14 0.003 0.305 0.005 0.471 0.005 11.311 0 20.48-9.169 20.48-20.48 0-0.166-0.002-0.331-0.006-0.495v0.024z" />
<glyph unicode="&#xe902;" glyph-name="distance" d="M195.005 480.056h635.77l-57.433 44.522c-12.911 9.795-16.028 21.816-8.459 32.501 4.194 5.346 10.655 8.749 17.91 8.749 6.206 0 11.831-2.49 15.93-6.526l-0.003 0.003c35.617-26.713 71.235-53.426 106.852-81.030 16.918-13.357 16.918-26.268 0-39.624-34.727-27.158-70.344-53.426-105.517-80.139-3.963-4.041-9.479-6.546-15.581-6.546-7.326 0-13.809 3.611-17.765 9.151l-0.045 0.066c-7.569 10.24-5.343 21.37 7.123 31.61s36.508 28.049 57.433 44.522h-637.551l44.522-35.172c4.452-3.562 9.35-6.233 13.357-10.24 5.061-3.956 8.284-10.061 8.284-16.918 0-11.829-9.589-21.418-21.418-21.418-4.971 0-9.547 1.694-13.181 4.535l0.047-0.036c-27.603 20.48-55.207 41.405-82.81 62.33-8.904 5.343-17.363 12.021-26.268 20.035-6.043 3.526-10.040 9.978-10.040 17.363s3.996 13.838 9.945 17.312l0.095 0.051c36.953 28.939 74.797 57.433 112.64 84.146 3.687 3.109 8.49 4.999 13.735 4.999 7.167 0 13.509-3.528 17.386-8.941l0.044-0.064c8.014-11.576 6.233-21.816-6.678-31.165l-54.762-41.405zM85.037 457.795q0-93.496 0-187.437c1.271-3.949 2.003-8.492 2.003-13.205 0-24.589-19.933-44.522-44.522-44.522s-44.522 19.933-44.522 44.522c0 4.714 0.733 9.257 2.090 13.521l-0.087-0.315q0 187.437 0 374.873c-0.073 0.955-0.114 2.067-0.114 3.19 0 23.689 18.501 43.057 41.843 44.442l0.122 0.006c0.032 0 0.071 0 0.109 0 24.589 0 44.522-19.933 44.522-44.522 0-1.097-0.040-2.184-0.118-3.261l0.008 0.144q-0.89-93.496-1.336-187.437zM1024 457.795q0-93.496 0-187.437c1.271-3.949 2.003-8.492 2.003-13.205 0-24.589-19.933-44.522-44.522-44.522s-44.522 19.933-44.522 44.522c0 4.714 0.733 9.257 2.090 13.521l-0.087-0.315q0 187.437 0 374.873c-0.077 0.984-0.121 2.13-0.121 3.286 0 23.221 17.777 42.29 40.464 44.339l0.172 0.013c0.032 0 0.071 0 0.109 0 24.589 0 44.522-19.933 44.522-44.522 0-1.097-0.040-2.184-0.118-3.261l0.008 0.144q0-93.496 0-187.437zM149.148 243.645c-0.939-11.376-10.306-20.28-21.796-20.48h-0.020c-11.46 0.724-20.48 10.196-20.48 21.775 0 0.014 0 0.029 0 0.043v-0.002c0.724 11.46 10.196 20.48 21.775 20.48 0.014 0 0.029 0 0.043 0h-0.002c11.46-0.724 20.48-10.196 20.48-21.775 0-0.014 0-0.029 0-0.043v0.002zM212.814 265.906c12.294 0 22.261-9.967 22.261-22.261s-9.967-22.261-22.261-22.261v0c-12.294 0-22.261 9.967-22.261 22.261s9.967 22.261 22.261 22.261v0zM298.296 265.906c12.294 0 22.261-9.967 22.261-22.261s-9.967-22.261-22.261-22.261v0c-12.294 0-22.261 9.967-22.261 22.261s9.967 22.261 22.261 22.261v0zM405.148 244.090c-0.699-11.418-9.908-20.473-21.328-20.924l-0.043-0.001c-12.294 0-22.261 9.967-22.261 22.261s9.967 22.261 22.261 22.261v0c11.887-0.209 21.444-9.895 21.444-21.812 0-0.628-0.027-1.25-0.079-1.864l0.005 0.080zM489.739 244.090c-0.715-11.567-10.163-20.706-21.794-20.925h-0.021c-12.294 0-22.261 9.967-22.261 22.261s9.967 22.261 22.261 22.261v0c0.022 0 0.047 0 0.073 0 12.048 0 21.816-9.767 21.816-21.816 0-0.627-0.026-1.248-0.078-1.861l0.005 0.080zM576.111 244.090c-0.939-11.376-10.306-20.28-21.796-20.48h-0.020c-12.294 0-22.261 9.967-22.261 22.261s9.967 22.261 22.261 22.261v0c0.034 0 0.074 0 0.114 0 12.048 0 21.816-9.767 21.816-21.816 0-0.784-0.041-1.559-0.122-2.321l0.008 0.095zM661.148 244.981c-0.452-11.463-9.507-20.672-20.862-21.367l-0.063-0.003c-12.294 0-22.261 9.967-22.261 22.261s9.967 22.261 22.261 22.261v0c11.678-0.469 20.967-10.049 20.967-21.799 0-0.476-0.015-0.948-0.045-1.416l0.003 0.064zM746.63 244.090c-0.699-11.418-9.908-20.473-21.328-20.924l-0.043-0.001c-12.294 0-22.261 9.967-22.261 22.261s9.967 22.261 22.261 22.261v0c11.887-0.209 21.444-9.895 21.444-21.812 0-0.628-0.027-1.25-0.079-1.864l0.005 0.080zM811.631 223.165c-12.294 0-22.261 9.967-22.261 22.261s9.967 22.261 22.261 22.261v0c12.294 0 22.261-9.967 22.261-22.261s-9.967-22.261-22.261-22.261v0zM895.332 223.165c-12.294 0-22.261 9.967-22.261 22.261s9.967 22.261 22.261 22.261v0c12.294 0 22.261-9.967 22.261-22.261s-9.967-22.261-22.261-22.261v0zM128.223 692.87c11.512-0.483 20.692-9.817 20.925-21.348v-0.022c0.012-0.271 0.019-0.588 0.019-0.908 0-11.988-9.476-21.762-21.345-22.242l-0.044-0.001c-11.678 0.469-20.967 10.049-20.967 21.799 0 0.476 0.015 0.948 0.045 1.416l-0.003-0.064c0.244 11.703 9.667 21.126 21.347 21.37h0.023zM234.63 671.054c0.003-0.134 0.005-0.292 0.005-0.45 0-12.139-9.717-22.009-21.797-22.256h-0.023c-11.678 0.469-20.967 10.049-20.967 21.799 0 0.476 0.015 0.948 0.045 1.416l-0.003-0.064c0 12.294 9.967 22.261 22.261 22.261s22.261-9.967 22.261-22.261v0zM298.741 648.348c-11.863 0.24-21.389 9.913-21.389 21.811 0 0.315 0.007 0.628 0.020 0.939l-0.001-0.045c0 12.294 9.967 22.261 22.261 22.261s22.261-9.967 22.261-22.261v0c0.003-0.138 0.005-0.3 0.005-0.463 0-12.294-9.967-22.261-22.261-22.261-0.315 0-0.628 0.007-0.94 0.019l0.045-0.001zM384.668 692.87c11.462-0.722 20.485-10.195 20.485-21.775 0-0.171-0.002-0.341-0.006-0.511v0.025c0-0.001 0-0.003 0-0.004 0-12.138-9.714-22.007-21.792-22.256h-0.023c-11.494 0.685-20.556 10.174-20.556 21.779 0 0.64 0.028 1.273 0.081 1.899l-0.006-0.081c0.491 11.659 10.062 20.925 21.797 20.925 0.006 0 0.013 0 0.019 0h-0.001zM489.739 671.944c-0.2-11.509-9.104-20.877-20.4-21.81l-0.080-0.005c-11.407 0.218-20.657 9.159-21.367 20.417l-0.003 0.063c0 12.294 9.967 22.261 22.261 22.261s22.261-9.967 22.261-22.261v0zM555.186 648.348c-11.661 0.488-20.93 10.061-20.93 21.798 0 0.163 0.002 0.325 0.005 0.487v-0.024c0 12.294 9.967 22.261 22.261 22.261s22.261-9.967 22.261-22.261v0c0-0.012 0-0.026 0-0.040 0-12.294-9.967-22.261-22.261-22.261-0.47 0-0.936 0.015-1.399 0.043l0.063-0.003zM640.668 648.348c-0.001 0-0.003 0-0.005 0-12.048 0-21.816 9.767-21.816 21.816 0 0.157 0.002 0.313 0.005 0.468v-0.023c0 12.294 9.967 22.261 22.261 22.261s22.261-9.967 22.261-22.261v0c0-0.001 0-0.003 0-0.004 0-12.294-9.967-22.261-22.261-22.261-0.157 0-0.313 0.002-0.468 0.005h0.023zM725.704 692.87c11.659-0.491 20.925-10.062 20.925-21.797 0-0.006 0-0.013 0-0.019v0.001c-0.715-11.567-10.163-20.706-21.794-20.925h-0.021c-11.46 0.724-20.48 10.196-20.48 21.775 0 0.014 0 0.029 0 0.043v-0.002c0.483 11.512 9.817 20.692 21.348 20.925h0.022zM810.741 648.348c-11.553 0.233-20.888 9.413-21.369 20.881l-0.001 0.044c0 12.294 9.967 22.261 22.261 22.261s22.261-9.967 22.261-22.261v0c-0.715-11.715-10.391-20.945-22.222-20.945-0.327 0-0.652 0.007-0.976 0.021l0.046-0.002zM896.668 692.87c11.462-0.722 20.485-10.195 20.485-21.775 0-0.171-0.002-0.341-0.006-0.511v0.025c-0.715-11.567-10.163-20.706-21.794-20.925h-0.021c-11.46 0.724-20.48 10.196-20.48 21.775 0 0.014 0 0.029 0 0.043v-0.002c0.25 11.855 9.919 21.37 21.811 21.37 0.002 0 0.003 0 0.005 0v0z" />
<glyph unicode="&#xe903;" glyph-name="draw" d="M245.295 22.575l61.44 61.44-158.72 158.72-61.44-61.44v-72.145h86.575v-86.575zM599.040 649.542c0.1 0.607 0.157 1.306 0.157 2.019 0 7.198-5.835 13.033-13.033 13.033-0.713 0-1.412-0.057-2.094-0.167l0.075 0.010c-0.125 0.004-0.273 0.006-0.421 0.006-4.382 0-8.349-1.781-11.215-4.66l-366.314-366.314c-2.879-2.866-4.66-6.833-4.66-11.215 0-0.148 0.002-0.296 0.006-0.443v0.022c-0.1-0.607-0.157-1.306-0.157-2.019 0-7.198 5.835-13.033 13.033-13.033 0.713 0 1.412 0.057 2.094 0.167l-0.075-0.010c0.125-0.004 0.273-0.006 0.421-0.006 4.382 0 8.349 1.781 11.215 4.66l366.314 366.314c2.879 2.866 4.66 6.833 4.66 11.215 0 0.148-0.002 0.296-0.006 0.443v-0.022zM562.735 779.404l279.273-279.273-562.735-564.131h-279.273v279.273zM1024 714.705c0.009-0.453 0.014-0.986 0.014-1.521 0-23.314-9.63-44.379-25.129-59.434l-0.020-0.019-112.175-112.64-279.273 279.273 110.313 114.036c14.74 15.787 35.676 25.626 58.91 25.626 0.726 0 1.45-0.010 2.171-0.029l-0.106 0.002c0.341 0.005 0.744 0.008 1.148 0.008 23.662 0 45.034-9.809 60.269-25.584l0.023-0.024 158.72-158.255c15.535-15.644 25.136-37.199 25.136-60.995 0-0.156 0-0.313-0.001-0.469v0.024z" />
<glyph unicode="&#xe904;" glyph-name="export-png" d="M341.178 628.131c0.001-0.139 0.001-0.303 0.001-0.467 0-56.297-45.638-101.935-101.935-101.935-0.164 0-0.328 0-0.492 0.001h0.025c-0.139-0.001-0.303-0.001-0.467-0.001-56.297 0-101.935 45.638-101.935 101.935 0 0.164 0 0.328 0.001 0.492v-0.025c-0.001 0.139-0.001 0.303-0.001 0.467 0 56.297 45.638 101.935 101.935 101.935 0.164 0 0.328 0 0.492-0.001h-0.025c0.139 0.001 0.303 0.001 0.467 0.001 56.297 0 101.935-45.638 101.935-101.935 0-0.164 0-0.328-0.001-0.492v0.025zM887.156 423.331v-238.778h-750.778v102.4l170.822 170.356 85.178-85.178 273.222 272.756zM938.356 798.953h-853.178c-9.511 0-17.222-7.71-17.222-17.222v0-648.844c0-9.511 7.71-17.222 17.222-17.222h853.644c9.511 0 17.222 7.71 17.222 17.222v0 648.844c0 9.511-7.71 17.222-17.222 17.222v0zM1024 781.731v-648.844c-0.263-46.937-38.242-84.916-85.153-85.178h-853.669c-0.237-0.002-0.517-0.004-0.797-0.004-23.247 0-44.246 9.629-59.224 25.116l-0.022 0.023c-15.51 15.001-25.138 35.999-25.138 59.246 0 0.28 0.001 0.56 0.004 0.84v-0.043 648.844c-0.002 0.237-0.004 0.517-0.004 0.797 0 23.247 9.629 44.246 25.116 59.224l0.023 0.022c15.001 15.51 35.999 25.138 59.246 25.138 0.28 0 0.56-0.001 0.84-0.004h853.601c0.237 0.002 0.517 0.004 0.797 0.004 23.247 0 44.246-9.629 59.224-25.116l0.022-0.023c15.51-15.001 25.138-35.999 25.138-59.246 0-0.28-0.001-0.56-0.004-0.84v0.043z" />
<glyph unicode="&#xe905;" glyph-name="external-link" d="M804.771 360.029v-182.924c0-91-73.77-164.771-164.771-164.771v0h-475.229c-1.198-0.032-2.609-0.051-4.023-0.051-43.883 0-83.607 17.809-112.338 46.594l-0.002 0.002c-28.787 28.733-46.596 68.457-46.596 112.34 0 1.415 0.019 2.825 0.055 4.231l-0.004-0.208v477.091c-0.032 1.198-0.051 2.609-0.051 4.023 0 43.883 17.809 83.607 46.594 112.338l0.002 0.002c28.733 28.787 68.457 46.596 112.34 46.596 1.415 0 2.825-0.019 4.231-0.055l-0.208 0.004h402.153c0.141 0.004 0.306 0.006 0.472 0.006 9.768 0 17.687-7.919 17.687-17.687 0-0.166-0.002-0.331-0.007-0.496l0.001 0.024v-36.771c0.004-0.141 0.006-0.306 0.006-0.472 0-9.768-7.919-17.687-17.687-17.687-0.166 0-0.331 0.002-0.496 0.007l0.024-0.001h-402.153c-0.38 0.006-0.829 0.009-1.278 0.009-24.903 0-47.389-10.348-63.393-26.978l-0.027-0.028c-16.658-16.031-27.006-38.517-27.006-63.42 0-0.449 0.003-0.898 0.010-1.346l-0.001 0.068v-473.367c-0.006-0.38-0.009-0.829-0.009-1.278 0-24.903 10.348-47.389 26.978-63.393l0.028-0.027c16.031-16.658 38.517-27.006 63.42-27.006 0.449 0 0.898 0.003 1.346 0.010l-0.068-0.001h475.229c51.413 0 93.091 41.678 93.091 93.091v0 181.527c-0.004 0.141-0.006 0.306-0.006 0.472 0 9.768 7.919 17.687 17.687 17.687 0.166 0 0.331-0.002 0.496-0.007l-0.024 0.001h36.771c0.141 0.004 0.306 0.006 0.472 0.006 9.768 0 17.687-7.919 17.687-17.687 0-0.166-0.002-0.331-0.007-0.496l0.001 0.024zM1024 853.411v-292.305c0.001-0.098 0.001-0.214 0.001-0.329 0-20.051-16.255-36.305-36.305-36.305-10.223 0-19.46 4.226-26.058 11.026l-100.547 100.547-372.364-372.364c-3.303-3.404-7.921-5.517-13.033-5.517s-9.729 2.113-13.028 5.512l-0.004 0.005-65.164 65.164c-3.404 3.303-5.517 7.921-5.517 13.033s2.113 9.729 5.512 13.028l0.005 0.004 372.364 372.364-100.538 100.538c-6.607 6.434-10.706 15.415-10.706 25.354 0 0.086 0 0.173 0.001 0.259v-0.013c-0.001 0.073-0.001 0.159-0.001 0.246 0 9.939 4.099 18.921 10.699 25.347l0.008 0.008c6.425 6.837 15.508 11.112 25.589 11.171h292.782c0.073 0.001 0.159 0.001 0.246 0.001 9.939 0 18.921-4.099 25.347-10.699l0.008-0.008c6.611-6.434 10.712-15.418 10.712-25.36 0-0.248-0.003-0.495-0.008-0.742l0.001 0.037z" />
<glyph unicode="&#xe906;" glyph-name="line" horiz-adv-x="1025" d="M143.68 774.114l43.358 43.358 694.346-694.346-43.358-43.358-694.346 694.346zM109.495 741.009c-0.324-0.003-0.706-0.005-1.090-0.005-60.473 0-109.495 49.023-109.495 109.495 0 30.726 12.656 58.497 33.040 78.382l0.022 0.022c20.1 19.26 47.427 31.118 77.523 31.118s57.423-11.858 77.563-31.156l-0.040 0.038c19.873-19.824 32.168-47.238 32.168-77.523s-12.295-57.698-32.166-77.52l-0.002-0.002c-19.709-20.163-47.137-32.708-77.496-32.848h-0.027zM109.495 898.683c-0.057 0-0.124 0-0.192 0-26.608 0-48.178-21.57-48.178-48.178 0-13.352 5.431-25.435 14.205-34.161l0.002-0.002c8.839-8.345 20.792-13.474 33.944-13.474s25.104 5.129 33.968 13.497l-0.024-0.022c9.317 8.804 15.116 21.247 15.116 35.043 0 26.608-21.57 48.178-48.178 48.178-0.233 0-0.466-0.002-0.698-0.005h0.035zM915.381-64c-60.388 0.111-109.3 49.091-109.3 109.495 0 60.473 49.023 109.495 109.495 109.495s109.495-49.023 109.495-109.495c0-30.285-12.295-57.698-32.166-77.52l-0.002-0.002c-19.739-19.754-47.015-31.973-77.146-31.973-0.132 0-0.265 0-0.397 0.001h0.021zM915.381 93.673c-26.526-0.109-47.987-21.637-47.987-48.178 0-26.608 21.57-48.178 48.178-48.178s48.178 21.57 48.178 48.178c0 13.351-5.431 25.434-14.204 34.16l-0.002 0.002c-8.709 8.662-20.715 14.016-33.971 14.016-0.067 0-0.134 0-0.202 0h0.010z" />
<glyph unicode="&#xe907;" glyph-name="map" d="M1006.797 695.808c0.013 0 0.028 0 0.044 0 9.501 0 17.203 7.702 17.203 17.203 0 0.432-0.016 0.861-0.047 1.286l0.003-0.057v57.754c0 13.347-10.82 24.166-24.166 24.166v0h-975.667c-13.347 0-24.166-10.82-24.166-24.166v0-661.094c0-13.347 10.82-24.166 24.166-24.166v0h174.899c9.501 0 17.203 7.702 17.203 17.203s-7.702 17.203-17.203 17.203h-163.84v640.614h296.141v-92.16c-8.625-5.377-14.865-13.891-17.154-23.911l-0.049-0.256c-0.192-1.202-0.302-2.588-0.302-3.999 0-9.507 4.983-17.85 12.479-22.56l0.111-0.065 4.915-2.458v-61.030l-8.602 5.734c-4.984 4.621-11.516 7.635-18.736 8.186l-0.105 0.006c4.355 6.066 6.964 13.641 6.964 21.826 0 0.103 0 0.206-0.001 0.308v-0.016c-0.039 16.754-11.126 30.908-26.36 35.566l-0.264 0.069c-9.864 3.087-21.237 5.011-33.011 5.321l-0.166 0.003c-1.896-0.174-4.101-0.274-6.329-0.274-16.796 0-32.272 5.648-44.635 15.147l0.173-0.128c-14.406 20.026-36.743 33.568-62.317 36.018l-0.351 0.027c-26.231-1.954-48.297-18.002-58.801-40.527l-0.181-0.433c-18.432-31.539-23.757-50.381-18.432-64.717 3.714-9.931 11.6-17.548 21.466-20.82l0.243-0.070h3.277c4.314-1.816 9.329-2.871 14.59-2.871 0.199 0 0.397 0.002 0.595 0.005h9.391c3.277 0 5.734 0 11.059-9.83 2.974-9.002 4.69-19.365 4.69-30.128 0-3.816-0.216-7.582-0.635-11.285l0.042 0.454c-0.884-4.586-1.39-9.859-1.39-15.251 0-18.406 5.894-35.436 15.897-49.305l-0.171 0.249c3.021-4.158 5.182-9.136 6.114-14.536l0.030-0.21c5.734-20.48 14.746-51.61 81.92-59.802 4.486-0.197 8.682-1.232 12.503-2.954l-0.215 0.086 3.277-2.458c-2.59-5.92-4.098-12.819-4.098-20.070 0-0.144 0.001-0.288 0.002-0.432v0.022c1.288-20.777 11.347-38.974 26.483-51.091l0.141-0.109c13.107-11.878 11.878-21.299 8.602-40.96-2.502-8.018-3.943-17.236-3.943-26.791 0-19.863 6.228-38.271 16.839-53.378l-0.198 0.297c12.698-18.842 17.203-24.986 27.853-24.986v0c8.58 0.172 15.709 6.182 17.588 14.211l0.025 0.125v-34.406h-64.307c-9.501 0-17.203-7.702-17.203-17.203s7.702-17.203 17.203-17.203h731.955c13.347 0 24.166 10.82 24.166 24.166v0 532.48c0 9.501-7.702 17.203-17.203 17.203s-17.203-7.702-17.203-17.203v0-522.24h-296.96v228.966c2.839-1.806 6.299-2.878 10.009-2.878 0.225 0 0.45 0.004 0.673 0.012l-0.032-0.001c11.878 0 18.022 9.011 24.576 18.432 4.579 6.903 9.432 12.928 14.782 18.469l-0.036-0.037 4.915 4.096c4.93-3.994 9.345-8.149 13.435-12.607l0.082-0.090c4.915-4.915 10.65-10.65 17.203-16.794 6.751-7.949 16.39-13.267 27.276-14.323l0.167-0.013c6.586 0.024 12.464 3.034 16.355 7.746l0.029 0.036c8.602 10.65 5.734 26.214 0 44.237v0c11.469 3.277 36.864 13.517 25.805 54.477v4.915c17.164 1.44 30.863 14.579 33.156 31.35l0.021 0.189c0.948 4.043 1.492 8.686 1.492 13.456 0 14.29-4.879 27.441-13.061 37.878l0.101-0.134c-5.734 9.011-6.554 10.65-4.506 15.565 1.921 5.434 4.856 10.084 8.609 13.934l-0.008-0.008c0.069-0.919 0.108-1.991 0.108-3.072s-0.039-2.153-0.116-3.214l0.008 0.142c4.096-30.72 23.347-44.646 40.96-44.646v0c0.063 0 0.137-0.001 0.212-0.001 10.199 0 19.282 4.779 25.131 12.22l0.052 0.069c5.491 7.908 8.773 17.712 8.773 28.281 0 5.256-0.811 10.322-2.316 15.081l0.097-0.354c-2.914 7.642-4.602 16.481-4.602 25.713 0 1.329 0.035 2.65 0.104 3.961l-0.008-0.183 5.734 4.096 4.506 2.867c6.42 3.894 10.805 10.588 11.463 18.345l0.006 0.087c-0.26 9.77-5.368 18.294-12.997 23.28l-0.11 0.067c-2.122 1.632-3.998 3.378-5.699 5.284l-0.035 0.040c2.42 4.044 3.851 8.92 3.851 14.131s-1.431 10.088-3.921 14.259l0.070-0.127c-5.764 8.302-15.249 13.669-25.988 13.669-1.089 0-2.166-0.055-3.227-0.163l0.133 0.011c-19.637-0.875-37.745-6.702-53.324-16.251l0.486 0.277c-8.776-5.402-19.408-8.603-30.787-8.603-0.12 0-0.241 0-0.361 0.001h0.018c-0.43-0.014-0.935-0.023-1.443-0.023-7.866 0-15.269 1.98-21.739 5.468l0.244-0.12c-4.271 2.878-9.481 4.681-15.096 4.913l-0.059 0.002c-9.843-0.552-18.164-6.543-22.052-14.995l-0.066-0.16c-2.867-4.506-3.277-5.734-7.782-6.144-3.49-0.226-7.567-0.354-11.674-0.354s-8.184 0.129-12.227 0.382l0.553-0.028h-3.277c0.302 1.493 0.475 3.21 0.475 4.967 0 6.017-2.027 11.56-5.435 15.984l0.045-0.061c-5.072 6.291-12.778 10.282-21.416 10.282-0.535 0-1.067-0.015-1.595-0.046l0.073 0.003c-6.326-0.115-12.368-1.155-18.053-2.99l0.441 0.123v71.27h296.55v-47.514c-0.030-0.382-0.047-0.827-0.047-1.276 0-9.501 7.702-17.203 17.203-17.203 0.449 0 0.894 0.017 1.335 0.051l-0.058-0.004zM374.374 628.634c-4.058 7.667-11.053 13.323-19.447 15.517l-0.214 0.047c14.607 8.28 31.512 15.155 49.332 19.751l1.458 0.319c1.723 0.244 3.712 0.384 5.734 0.384s4.012-0.14 5.96-0.41l-0.225 0.026c4.506 0 13.926 0 16.794-18.842 0.376-2.693 0.59-5.805 0.59-8.967 0-17.315-6.433-33.127-17.040-45.176l0.065 0.076c-22.497-1.944-41.108-16.71-48.614-36.88l-0.128-0.394c-1.218 4.974-1.916 10.685-1.916 16.558 0 10.454 2.213 20.392 6.195 29.369l-0.183-0.462c2.486 4.767 3.945 10.411 3.945 16.395 0 4.558-0.846 8.918-2.39 12.933l0.083-0.247zM279.757 553.677l-5.325-6.963c1.070 2.869 2.915 5.242 5.28 6.933l0.045 0.030zM245.76 443.085c-5.764 2.711-12.502 4.355-19.608 4.505l-0.053 0.001c-0.365 0.016-0.793 0.025-1.223 0.025-11.682 0-21.778-6.792-26.553-16.643l-0.077-0.176c-3.4-4.472-5.447-10.134-5.447-16.274 0-2.516 0.344-4.952 0.987-7.263l-0.045 0.19c-6.45 5.898-10.993 13.784-12.658 22.684l-0.039 0.254c-3.018 11.811-9.032 21.944-17.189 29.887l-0.014 0.013c-5.325 5.325-4.506 23.757-4.096 38.912 0.562 4.357 0.883 9.396 0.883 14.511 0 16.487-3.336 32.195-9.37 46.486l0.294-0.786c-6.852 16.282-22.554 27.564-40.924 27.852h-16.010c3.722 12.781 9.035 23.94 15.835 34.012l-0.271-0.425c9.83 16.384 19.661 24.986 29.082 24.986 15.385-3.059 28.313-11.836 36.738-23.975l0.126-0.192c18.029-16.387 42.088-26.42 68.491-26.42 2.275 0 4.532 0.074 6.77 0.221l-0.304-0.016c8.465-0.081 16.647-1.121 24.495-3.018l-0.738 0.151s3.277 0 3.277-2.458c-0.145-1.614-1.312-2.92-2.842-3.272l-0.025-0.005c-20.64-7.214-35.181-26.518-35.181-49.219 0-3.161 0.282-6.255 0.822-9.26l-0.047 0.316c0.804-15.9 13.268-28.647 28.971-29.894l0.11-0.007c12.050 0.642 22.411 7.319 28.174 17.042l0.088 0.161 9.421 12.698c3.604-2.572 7.755-5.152 12.067-7.472l0.63-0.31c2.819-1.030 5.252-2.273 7.503-3.768l-0.13 0.081c-6.213-5.232-13.596-9.303-21.68-11.764l-0.438-0.115c-23.142-9.935-41.533-27.266-52.564-48.968l-0.274-0.594c-2.502-5.137-4.819-9.295-7.326-13.323l0.363 0.625zM306.381 209.203c-0.055 1.258-0.086 2.733-0.086 4.216 0 8.089 0.927 15.962 2.68 23.517l-0.137-0.699c1.738 5.809 2.738 12.483 2.738 19.391 0 21.415-9.611 40.586-24.755 53.434l-0.101 0.084c-8.004 6.114-13.645 14.969-15.526 25.143l-0.039 0.252c-0.001 0.063-0.001 0.138-0.001 0.212 0 4.63 1.707 8.861 4.526 12.098l-0.019-0.022c5.325 6.144 8.602 7.782 9.421 7.782 6.284-2.171 11.721-5.231 16.484-9.090l-0.1 0.079c8.040-5.837 17.172-11.294 26.78-15.919l1.072-0.465h2.048c13.517-6.144 29.901-13.517 31.539-21.709s0-15.565-27.034-43.827c-13.54-15.052-24.064-33.113-30.434-53.032l-0.286-1.035zM367.002 121.139v120.832c27.443 29.082 38.502 52.019 34.406 72.499-4.985 17.656-17.628 31.643-34.019 38.362l-0.388 0.141v49.152c0 9.501-7.702 17.203-17.203 17.203s-17.203-7.702-17.203-17.203v0-31.539l-6.963 4.506c-10.433 9.051-23.935 14.815-38.76 15.559l-0.152 0.006c-4.582-0.061-8.937-0.957-12.944-2.544l0.247 0.086c-2.631 9.544-9.013 17.265-17.421 21.618l-0.192 0.090c10.479 6.855 18.743 16.302 23.995 27.448l0.171 0.405c7.131 15.262 18.765 27.425 33.178 35.029l0.409 0.197c6.299 2.24 11.437 4.452 16.413 6.937l-0.849-0.384v-8.192c0-9.501 7.702-17.203 17.203-17.203s17.203 7.702 17.203 17.203v0 40.96h4.506c15.974 0 23.347 13.926 28.672 24.166s11.469 18.842 19.661 18.842c18.882 1.232 34.608 13.515 40.855 30.397l0.105 0.323c7.47 15.078 11.851 32.829 11.878 51.6v0.009c0.032 0.808 0.050 1.756 0.050 2.708 0 14.14-3.981 27.35-10.882 38.572l0.183-0.32c-8.63 12.922-23.154 21.318-39.64 21.318-0.464 0-0.927-0.007-1.388-0.020l0.068 0.002c-7.631-0.102-14.945-1.293-21.848-3.422l0.548 0.146c-11.469-3.277-21.709-6.554-30.72-9.83v74.957h292.454v-96.666c-9.721-11.675-15.622-26.83-15.622-43.363 0-4.657 0.468-9.205 1.36-13.599l-0.074 0.437c0.207-0.352 0.329-0.776 0.329-1.229s-0.122-0.876-0.336-1.24l0.006 0.012c-4.938-4.146-11.364-6.664-18.377-6.664-0.884 0-1.76 0.040-2.624 0.118l0.111-0.008c-7.716 0.082-15.025 1.732-21.654 4.645l0.355-0.139c-9.298 4.069-20.127 6.471-31.508 6.553h-0.031c-38.392-0.371-70.438-27.094-78.941-62.932l-0.111-0.556c-3.783-23.966-15.306-44.741-31.885-60.152l-0.064-0.059c-5.471-5.033-8.886-12.227-8.886-20.218 0-3.634 0.706-7.102 1.989-10.276l-0.066 0.184c-16.347-11.030-26.954-29.482-26.954-50.413 0-33.48 27.141-60.621 60.621-60.621 0.692 0 1.382 0.012 2.069 0.035l-0.1-0.003h18.022c0.534-13.404 7.125-25.166 17.094-32.689l0.109-0.079c-2.6-6.008-4.112-13.004-4.112-20.353 0-10.719 3.217-20.688 8.738-28.991l-0.121 0.193c6.885-16.902 22.288-29.025 40.732-31.109l0.228-0.021c15.61 0.454 28.988 9.575 35.528 22.7l0.107 0.238c3.277 5.147 6.305 11.081 8.761 17.304l0.25 0.719c1.213 4.157 3.836 7.577 7.303 9.789l0.069 0.041c10.051 7.589 16.809 19.081 18.009 32.181l0.013 0.178c0.055 0.869 0.086 1.884 0.086 2.906 0 13.381-5.347 25.513-14.021 34.376l0.009-0.009c-0.141 0.301-0.223 0.653-0.223 1.024s0.082 0.723 0.23 1.039l-0.006-0.015c2.703 3.894 5.050 8.355 6.825 13.096l0.138 0.421h8.602c0.126-0.002 0.275-0.002 0.424-0.002 6.27 0 12.186 1.515 17.402 4.198l-0.214-0.1v-251.494zM703.693 653.619c0.095-6.209 2.238-11.899 5.78-16.445l-0.046 0.061c7.52-8.248 18.31-13.404 30.305-13.404 1.734 0 3.443 0.108 5.121 0.317l-0.2-0.020c10.068 0.262 19.687 1.146 29.111 2.62l-1.258-0.162c12.451 1.219 23.142 7.849 29.812 17.477l0.089 0.136c9.73-4.403 21.097-6.969 33.063-6.969 0.328 0 0.656 0.002 0.984 0.006h-0.050c18.191 0.029 35.166 5.208 49.552 14.158l-0.4-0.232c8.61 5.066 18.703 8.674 29.467 10.19l0.433 0.050c-0.502-2.217-0.79-4.763-0.79-7.376 0-10.217 4.401-19.407 11.411-25.776l0.029-0.026c-16.794-13.107-18.432-27.853-10.24-63.898 0.426-1.784 0.671-3.833 0.671-5.939s-0.245-4.155-0.707-6.12l0.036 0.18c-2.96 3.709-4.898 8.352-5.319 13.426l-0.006 0.090c0 9.011-7.373 38.502-33.178 38.502s-36.454-19.661-43.418-40.96c-1.649-4.643-2.602-9.998-2.602-15.576 0-11.533 4.074-22.114 10.861-30.383l-0.067 0.084c4.502-4.93 7.26-11.52 7.26-18.754 0-2.21-0.257-4.359-0.744-6.421l0.038 0.189c0.102-0.616 0.161-1.325 0.161-2.048s-0.059-1.432-0.171-2.124l0.010 0.076h-4.915c-0.063 0-0.138 0.001-0.212 0.001-9.531 0-18.021-4.46-23.496-11.406l-0.048-0.064c-2.474-5.291-3.917-11.488-3.917-18.022s1.443-12.731 4.029-18.29l-0.112 0.268c0.328-1.663 0.516-3.574 0.516-5.53s-0.188-3.867-0.546-5.718l0.030 0.188h-5.325c-18.432-5.325-26.624-15.565-23.757-31.13v-3.277l-3.277 3.277c-12.698 13.107-22.938 23.347-38.093 23.347-11.88-0.605-22.348-6.185-29.438-14.68l-0.053-0.065c-3.261-3.282-6.344-6.754-9.225-10.393l-0.196-0.256c-4.618 13.979-14.84 25.003-27.936 30.596l-0.326 0.124c-1.047 0.226-2.249 0.356-3.482 0.356s-2.435-0.13-3.594-0.376l0.113 0.020c-13.025-0.253-24.188-7.974-29.405-19.049l-0.086-0.202-2.867-4.506h-4.506c-3.677 0.813-6.868 2.538-9.433 4.926l0.012-0.011c-2.914 2.343-6.659 3.76-10.735 3.76-9.501 0-17.203-7.702-17.203-17.203 0-0.603 0.031-1.199 0.092-1.786l-0.006 0.074s0 0 0-2.048c0.158-1.107 0.249-2.386 0.249-3.686s-0.090-2.579-0.265-3.831l0.017 0.144c-1.123-3.465-2.799-6.465-4.951-9.056l0.036 0.044c-1.252-1.629-2.234-3.54-2.837-5.613l-0.030-0.122c-1.305-3.662-2.060-7.887-2.060-12.288 0-9.798 3.739-18.722 9.868-25.424l-0.026 0.029c2.999-2.755 4.881-6.684 4.915-11.053v-0.006c-0.506-3.255-2.319-6.010-4.876-7.757l-0.039-0.025c-8.4-5.926-14.803-14.179-18.321-23.819l-0.111-0.347c-1.817-4.886-3.885-9.072-6.322-13.006l0.178 0.308c-1.449-2.729-3.537-4.948-6.072-6.512l-0.072-0.042s-5.734 3.686-11.469 13.517c-1.851 2.904-2.949 6.444-2.949 10.24s1.099 7.336 2.996 10.318l-0.046-0.078c2.071 3.898 3.287 8.522 3.287 13.43 0 10.628-5.701 19.925-14.213 24.998l-0.133 0.074c-5.734 3.686-4.096 11.878-2.867 16.794 0.519 1.566 0.818 3.37 0.818 5.243 0 4.261-1.549 8.16-4.115 11.165l0.020-0.024c-3.179 4.007-8.047 6.554-13.511 6.554-0.002 0-0.004 0-0.007 0h-36.044c-14.365 0-26.010 11.645-26.010 26.010s11.645 26.010 26.010 26.010h48.742c0.005 0 0.011 0 0.017 0 7.631 0 14.488-3.312 19.213-8.578l0.021-0.024c3.136-3.496 7.656-5.697 12.691-5.734h0.417c1.231 0.202 2.65 0.317 4.096 0.317s2.865-0.115 4.248-0.337l-0.152 0.020c1.687-0.608 3.634-0.959 5.663-0.959 9.501 0 17.203 7.702 17.203 17.203 0 3.224-0.887 6.241-2.43 8.82l0.043-0.078c-3.686 6.554-6.144 11.469-6.144 11.878v0c-5.089 9.819-10.667 18.275-17.011 26.081l0.218-0.277-5.734 4.506c-8.281 13.216-21.933 22.412-37.821 24.546l-0.271 0.030c-10.173-0.264-19.283-4.61-25.79-11.453l-0.015-0.016c4.943 10.708 9.561 23.514 13.117 36.755l0.4 1.748c4.493 21.655 23.256 37.751 45.838 38.092h0.037c6.514-0.023 12.705-1.377 18.325-3.803l-0.303 0.116c10.258-4.403 22.197-6.963 34.734-6.963 0.029 0 0.058 0 0.086 0h-0.004c0.892-0.047 1.936-0.073 2.986-0.073 17.758 0 33.745 7.585 44.898 19.691l0.039 0.043c5.17 6.297 8.304 14.436 8.304 23.308 0 2.919-0.339 5.758-0.98 8.481l0.050-0.25c-0.106 1.057-0.167 2.284-0.167 3.526 0 16.397 10.588 30.321 25.3 35.309l0.263 0.077zM528.794 468.48c2.094 3.666 4.687 6.781 7.734 9.38l0.049 0.040c3.67-2.935 6.896-6.161 9.736-9.709l0.094-0.122h-17.203z" />
<glyph unicode="&#xe908;" glyph-name="polyline" d="M248.707 378.688l511.028 363.975 31.988-44.911-511.028-363.975-31.988 44.911zM156.842 713.637l1.876 55.107 617.587-21.027-1.876-55.107-617.587 21.027zM836.135 644.923h-3.151c-53.143 1.582-95.62 45.041-95.62 98.421 0 28.452 12.068 54.085 31.364 72.060l0.059 0.055c17.758 16.381 41.576 26.426 67.741 26.426 0.97 0 1.936-0.014 2.9-0.041l-0.142 0.003c53.62-0.996 96.705-44.697 96.705-98.462 0-54.388-44.090-98.477-98.477-98.477-0.623 0-1.245 0.006-1.865 0.017l0.093-0.001zM836.135 786.708c-0.009 0-0.019 0-0.029 0-23.373 0-42.422-18.509-43.292-41.669l-0.002-0.079c-0.019-0.478-0.030-1.039-0.030-1.603 0-23.383 18.525-42.439 41.7-43.293l0.078-0.002c23.927 0 43.323 19.396 43.323 43.323s-19.396 43.323-43.323 43.323v0zM98.462 644.923h-3.151c-52.827 0.886-95.311 43.919-95.311 96.873 0 53.509 43.377 96.886 96.886 96.886s96.886-43.377 96.886-96.886c0-52.955-42.484-95.987-95.228-96.872l-0.083-0.001zM98.462 786.708c-23.927 0-43.323-19.396-43.323-43.323s19.396-43.323 43.323-43.323v0c23.222 0.394 42.050 18.673 43.318 41.634l0.005 0.114c0.019 0.478 0.030 1.039 0.030 1.603 0 23.383-18.525 42.439-41.7 43.293l-0.078 0.002zM216.222 232.566h-3.545c-52.958 0.996-95.508 44.161-95.508 97.264 0 53.726 43.554 97.28 97.28 97.28s97.28-43.554 97.28-97.28c0-53.103-42.549-96.268-95.415-97.262l-0.093-0.001zM216.222 374.351c-0.009 0-0.019 0-0.029 0-23.373 0-42.422-18.509-43.292-41.669l-0.002-0.079c-0.019-0.478-0.030-1.039-0.030-1.603 0-23.383 18.525-42.439 41.7-43.293l0.078-0.002c0.351-0.010 0.763-0.015 1.177-0.015 11.522 0 22.030 4.34 29.978 11.474l-0.042-0.037c8.397 7.92 13.625 19.12 13.625 31.542 0 23.317-18.42 42.331-41.502 43.285l-0.086 0.003zM263.243 289.732l14.485 53.202 596.242-162.331-14.485-53.202-596.242 162.331zM926.72 39.188c-54.357 0.029-98.41 44.101-98.41 98.462 0 9.249 1.275 18.2 3.659 26.687l-0.166-0.693c13.13 39.987 50.125 68.352 93.745 68.352 54.379 0 98.462-44.083 98.462-98.462 0-7.615-0.864-15.028-2.501-22.147l0.128 0.662c-11.651-42.255-49.708-72.786-94.908-72.862h-0.009zM926.72 180.972c-0.564 0.026-1.225 0.041-1.89 0.041-23.927 0-43.323-19.396-43.323-43.323 0-7.992 2.164-15.479 5.939-21.906l-0.111 0.204c5.753-9.836 15.044-17.073 26.088-20.018l0.3-0.068c3.416-0.968 7.339-1.525 11.393-1.525 19.844 0 36.573 13.342 41.703 31.546l0.073 0.305c0.968 3.416 1.525 7.339 1.525 11.393 0 19.844-13.342 36.573-31.546 41.703l-0.305 0.073c-3.034 0.872-6.541 1.439-10.159 1.573l-0.081 0.002z" />
<glyph unicode="&#xe909;" glyph-name="position" d="M352.349 820.364v-65.629c0-22.622 18.338-40.96 40.96-40.96s40.96 18.338 40.96 40.96v0s0 0 0 0v65.629l70.284 70.284c9.876 7.558 16.182 19.35 16.182 32.616 0 22.622-18.338 40.96-40.96 40.96-13.734 0-25.889-6.759-33.32-17.132l-0.084-0.123-53.062-53.062-53.527 53.062c-6.69 7.3-15.973 12.129-26.38 13.022l-0.15 0.010c-0.443 0.017-0.963 0.027-1.486 0.027-22.879 0-41.425-18.547-41.425-41.425 0-11.468 4.66-21.848 12.19-29.349l0.001-0.001zM124.276-1.164h762.88l-9.309-9.309c-7.381-5.759-12.082-14.655-12.082-24.65 0-17.223 13.962-31.185 31.185-31.185 9.994 0 18.89 4.701 24.598 12.013l0.052 0.069 58.647 58.647c7.61 5.75 12.477 14.782 12.477 24.95 0 6.892-2.236 13.262-6.022 18.424l0.061-0.087-3.258 3.724-61.905 61.905c-5.759 7.381-14.655 12.082-24.65 12.082-17.223 0-31.185-13.962-31.185-31.185 0-9.994 4.701-18.89 12.013-24.598l0.069-0.052 9.309-9.309h-204.335v31.185c0.148 1.142 0.233 2.462 0.233 3.803 0 17.223-13.962 31.185-31.185 31.185s-31.185-13.962-31.185-31.185c0-1.34 0.085-2.661 0.249-3.957l-0.016 0.154v-31.185h-124.276v31.185c0.148 1.142 0.233 2.462 0.233 3.803 0 17.223-13.962 31.185-31.185 31.185s-31.185-13.962-31.185-31.185c0-1.34 0.085-2.661 0.249-3.957l-0.016 0.154v-31.185h-124.276v31.185c0.148 1.142 0.233 2.462 0.233 3.803 0 17.223-13.962 31.185-31.185 31.185s-31.185-13.962-31.185-31.185c0-1.34 0.085-2.661 0.249-3.957l-0.016 0.154v-31.185h-124.276v124.742h31.185c1.142-0.148 2.462-0.233 3.803-0.233 17.223 0 31.185 13.962 31.185 31.185s-13.962 31.185-31.185 31.185c-1.34 0-2.661-0.085-3.957-0.249l0.154 0.016h-31.185v124.276h31.185c1.142-0.148 2.462-0.233 3.803-0.233 17.223 0 31.185 13.962 31.185 31.185s-13.962 31.185-31.185 31.185c-1.34 0-2.661-0.085-3.957-0.249l0.154 0.016h-31.185v123.811h31.185c1.142-0.148 2.462-0.233 3.803-0.233 17.223 0 31.185 13.962 31.185 31.185s-13.962 31.185-31.185 31.185c-1.34 0-2.661-0.085-3.957-0.249l0.154 0.016h-31.185v204.8l9.309-9.309c5.819-6.245 14.091-10.138 23.273-10.138 17.552 0 31.782 14.229 31.782 31.782 0 8.371-3.236 15.986-8.526 21.663l0.017-0.019-64.698 62.836c-5.625 5.54-13.351 8.96-21.876 8.96s-16.251-3.421-21.88-8.964l-62.367-62.367c-6.245-5.819-10.138-14.091-10.138-23.273 0-17.552 14.229-31.782 31.782-31.782 8.371 0 15.986 3.236 21.663 8.526l-0.019-0.017 9.309 9.309v-822.458zM1011.433 276.247l-53.062 53.062 53.062 53.062c9.638 7.654 15.763 19.371 15.763 32.519 0 22.879-18.547 41.425-41.425 41.425-13.148 0-24.865-6.125-32.454-15.678l-0.065-0.085-53.062-53.062-53.062 53.062c-7.654 9.638-19.371 15.763-32.519 15.763-22.879 0-41.425-18.547-41.425-41.425 0-13.148 6.125-24.865 15.678-32.454l0.085-0.065 53.062-53.062-53.062-53.062c-8.173-7.627-13.268-18.462-13.268-30.487 0-23.009 18.652-41.661 41.661-41.661 10.983 0 20.974 4.25 28.417 11.196l-0.024-0.023 53.062 53.062 53.062-53.062c7.261-6.42 16.864-10.339 27.381-10.339 22.879 0 41.425 18.547 41.425 41.425 0 10.169-3.664 19.483-9.745 26.692l0.051-0.062z" />
<glyph unicode="&#xe90a;" glyph-name="print" d="M236.451 46.778h551.098v157.789h-551.098zM236.451 440.553h551.098v236.451h-98.211c-0.139-0.001-0.303-0.002-0.467-0.002-32.39 0-58.647 26.257-58.647 58.647 0 0.164 0.001 0.328 0.002 0.492v-0.025 98.676h-393.775zM945.338 401.455c0.005 0.227 0.007 0.494 0.007 0.762 0 22.107-17.922 40.029-40.029 40.029s-40.029-17.922-40.029-40.029c0-22.107 17.922-40.029 40.029-40.029 11.094 0 21.134 4.513 28.384 11.803l0.002 0.002c7.177 6.876 11.637 16.537 11.637 27.241 0 0.078 0 0.155-0.001 0.233v-0.012zM1024 401.455v-256c-0.254-10.693-8.856-19.295-19.525-19.549h-139.66v-96.815c0.001-0.139 0.002-0.303 0.002-0.467 0-32.39-26.257-58.647-58.647-58.647-0.164 0-0.328 0.001-0.492 0.002h-589.24c-0.139-0.001-0.303-0.002-0.467-0.002-32.39 0-58.647 26.257-58.647 58.647 0 0.164 0.001 0.328 0.002 0.492v-0.025 96.815h-139.636c-0.007 0-0.015 0-0.023 0-5.496 0-10.448 2.323-13.931 6.040l-0.010 0.011c-2.392 3.153-3.832 7.144-3.832 11.47 0 0.714 0.039 1.42 0.116 2.114l-0.008-0.086v256c-0.005 0.413-0.009 0.901-0.009 1.39 0 32.176 13.38 61.226 34.88 81.891l0.037 0.036c20.701 21.537 49.751 34.918 81.927 34.918 0.489 0 0.977-0.003 1.464-0.009l-0.074 0.001h39.564v334.662c-0.007 0.341-0.012 0.742-0.012 1.145 0 15.978 6.599 30.414 17.22 40.733l0.014 0.013c10.331 10.63 24.765 17.226 40.739 17.226 0.241 0 0.483-0.002 0.723-0.005h413.287c19.796-0.426 38.455-4.839 55.353-12.463l-0.895 0.361c18.034-7.086 33.493-17.013 46.616-29.39l-0.071 0.066 93.091-93.091c12.31-13.053 22.238-28.512 28.985-45.575l0.338-0.971c7.203-15.863 11.609-34.352 12.098-53.814l0.004-0.179v-158.72h39.564c0.139 0.001 0.302 0.001 0.466 0.001 65.388 0 118.426-52.875 118.69-118.201v-0.025z" />
<glyph unicode="&#xe90b;" glyph-name="rectangle" d="M840.533 4.267h-772.693v772.267h77.227v-695.040h695.467v-77.227zM955.733 119.467h-77.227v695.467h-695.040v77.227h772.267v-772.693zM106.667 746.667h-3.84c-57.266 2.088-102.898 49.015-102.898 106.6 0 1.374 0.026 2.742 0.077 4.103l-0.006-0.196c3.248 57.47 50.644 102.843 108.637 102.843 0.658 0 1.314-0.006 1.968-0.017l-0.098 0.001c58.088-1.079 104.764-48.422 104.764-106.667 0-58.92-47.764-106.684-106.684-106.684-0.675 0-1.349 0.006-2.021 0.019l0.101-0.001zM106.667 900.267c-25.921 0-46.933-21.013-46.933-46.933s21.013-46.933 46.933-46.933v0c0.38-0.011 0.827-0.017 1.275-0.017 12.482 0 23.865 4.701 32.477 12.43l-0.045-0.040c9.097 8.58 14.761 20.714 14.761 34.171 0 25.26-19.955 45.859-44.96 46.893l-0.094 0.003zM917.333-64h-3.84c-57.372 1.079-103.467 47.841-103.467 105.369 0 58.203 47.183 105.387 105.387 105.387s105.387-47.183 105.387-105.387c0-57.528-46.095-104.291-103.366-105.368l-0.101-0.001zM917.333 89.6c-25.921 0-46.933-21.013-46.933-46.933s21.013-46.933 46.933-46.933v0c0.427-0.014 0.93-0.021 1.434-0.021 12.432 0 23.765 4.705 32.315 12.432l-0.042-0.037c9.097 8.58 14.761 20.714 14.761 34.171 0 25.26-19.955 45.859-44.96 46.893l-0.094 0.003z" />
<glyph unicode="&#xe90c;" glyph-name="redlining" d="M477.44-1.707c-31.147 0-61.013 0-90.027 3.84l3.413 54.187c28.16 0 57.6-2.987 87.467-3.84zM567.467-1.707v54.187c30.293 0 59.307 0 87.467 3.84l3.413-54.187c-29.867-2.133-61.013-3.413-90.88-3.84zM298.667 9.813c-32 3.84-62.293 8.533-89.6 13.653l10.24 53.333c26.027-5.12 55.040-9.387 85.333-13.227zM748.373 9.813l-7.68 54.187c30.72 3.413 59.733 8.107 85.333 13.227l10.24-53.333c-25.6-5.12-56.747-9.813-89.173-13.653zM118.187 46.933c-56.32 19.627-85.333 42.667-85.333 75.52l52.48 2.133s3.413-10.24 49.493-26.453zM928.853 46.933l-18.347 51.2c42.667 14.933 48.64 27.307 48.64 27.307l53.76 2.133v-3.84c-1.28-46.507-64.853-69.12-86.187-76.373zM134.4 149.333l-18.347 51.2c24.714 8.869 54.803 16.994 85.695 22.851l3.905 0.616 10.24-53.333c-31.695-5.923-59.060-13.308-85.545-22.567l4.052 1.233zM907.093 149.333c-22.636 7.877-50.314 15.123-78.699 20.349l-3.647 0.558 10.24 53.333c35.036-6.394 65.288-14.376 94.594-24.397l-4.567 1.357zM302.080 184.747l-6.4 53.76c28.16 3.413 58.453 5.973 90.027 8.107l3.413-54.613c-30.293 0-59.733-3.84-87.040-7.253zM738.987 184.747c-27.307 3.413-56.747 5.973-85.333 7.68l3.413 54.187c31.573 0 61.44-4.693 90.027-8.107zM476.587 196.267v54.187c29.44 0 60.587 0 90.027 0v-54.187c-31.147 0.853-61.013 0.853-90.027 0zM183.893 214.187l46.080 46.080-119.040 119.040-46.080-46.080v-55.893h63.147v-64.853zM448.853 683.52c0.062 0.414 0.097 0.891 0.097 1.377 0 5.42-4.394 9.813-9.813 9.813-0.486 0-0.963-0.035-1.43-0.103l0.053 0.006c-0.102 0.003-0.223 0.005-0.343 0.005-3.203 0-6.101-1.307-8.189-3.417l-0.001-0.001-274.773-273.493c-2.111-2.089-3.418-4.987-3.418-8.19 0-0.121 0.002-0.241 0.006-0.361v0.018c-0.062-0.414-0.097-0.891-0.097-1.377 0-5.42 4.394-9.813 9.813-9.813 0.486 0 0.963 0.035 1.43 0.103l-0.053-0.006c0.229-0.016 0.497-0.026 0.766-0.026 2.997 0 5.727 1.144 7.776 3.020l-0.009-0.008 274.773 274.773c2.365 2.119 3.846 5.182 3.846 8.592 0 0.129-0.002 0.258-0.006 0.387v-0.019zM421.973 782.080l210.773-210.773-421.973-421.973h-210.773v210.773zM768 733.44c0.006-0.32 0.009-0.697 0.009-1.074 0-17.467-7.189-33.256-18.77-44.567l-85.345-85.345-209.493 212.053 85.333 85.333c10.877 10.829 25.878 17.524 42.443 17.524 0.679 0 1.355-0.011 2.028-0.034l-0.098 0.003c0.217 0.003 0.474 0.004 0.731 0.004 17.787 0 33.857-7.354 45.334-19.188l0.016-0.016 119.040-118.613c11.605-11.714 18.775-27.838 18.775-45.637 0-0.156-0.001-0.311-0.002-0.467v0.024z" />
<glyph unicode="&#xe90d;" glyph-name="search" d="M708.887 526.662c0.017 1.103 0.026 2.404 0.026 3.708 0 74.894-31.032 142.54-80.94 190.78l-0.075 0.072c-48.35 50.256-116.177 81.475-191.295 81.475-1.148 0-2.294-0.007-3.439-0.022l0.174 0.002c-1.239 0.021-2.702 0.033-4.167 0.033-74.897 0-142.545-31.035-190.787-80.947l-0.072-0.075c-49.987-48.313-81.022-115.962-81.022-190.859 0-1.465 0.012-2.927 0.036-4.386l-0.003 0.22c-0.017-1.103-0.026-2.404-0.026-3.708 0-74.894 31.032-142.54 80.94-190.78l0.075-0.072c48.313-49.983 115.959-81.015 190.852-81.015 1.304 0 2.605 0.009 3.905 0.028l-0.197-0.002c1.103-0.017 2.404-0.026 3.708-0.026 74.894 0 142.54 31.032 190.78 80.94l0.072 0.075c50.256 48.35 81.475 116.177 81.475 191.295 0 1.148-0.007 2.294-0.022 3.439l0.002-0.174zM1024 14.662c-0.77-43.131-35.531-77.892-78.589-78.661l-0.073-0.001c-0.563-0.016-1.225-0.024-1.89-0.024-21.105 0-40.12 8.946-53.459 23.254l-0.040 0.043-211.316 209.455c-67.379-47.764-151.28-76.353-241.858-76.353-1.372 0-2.742 0.007-4.111 0.020l0.209-0.002c-0.532-0.002-1.161-0.004-1.79-0.004-60.223 0-117.526 12.5-169.457 35.046l2.753-1.064c-106.057 44.053-188.675 126.67-231.69 229.92l-1.037 2.808c-21.572 49.655-34.121 107.493-34.121 168.262s12.549 118.607 35.197 171.064l-1.077-2.802c44.053 106.057 126.67 188.675 229.92 231.69l2.808 1.037c49.655 21.572 107.493 34.121 168.262 34.121s118.607-12.549 171.064-35.197l-2.802 1.077c106.057-44.053 188.675-126.67 231.69-229.92l1.037-2.808c21.482-49.178 33.982-106.482 33.982-166.705 0-0.629-0.001-1.258-0.004-1.887v0.097c0.012-1.159 0.018-2.53 0.018-3.902 0-90.578-28.589-174.478-77.235-243.171l0.882 1.313 210.851-210.851c13.549-13.629 21.925-32.415 21.925-53.157 0-0.949-0.018-1.893-0.052-2.833l0.004 0.136z" />
<glyph unicode="&#xe90e;" glyph-name="select-circle" horiz-adv-x="1005" d="M480.939-1.879v0c-0.208 0-0.455-0.001-0.701-0.001-43.783 0-86.2 5.851-126.512 16.813l3.371-0.781 20.841 77.351c30.635-8.4 65.811-13.227 102.114-13.227 0.312 0 0.624 0 0.936 0.001h-0.049zM240.47 62.247c-37.971 22.006-70.733 47.24-99.816 76.17l0.021-0.021 56.51 56.911c24.271-24.203 51.64-45.319 81.456-62.698l1.907-1.027zM64.927 238.591c-19.678 33.31-36.11 71.805-47.306 112.469l-0.788 3.357 77.351 20.841c9.98-36.708 23.674-68.811 41.095-98.459l-1.016 1.871zM945.447 354.818l-77.351 20.841c8.634 31.009 13.606 66.621 13.627 103.39v0.012h80.157c-0.038-44.203-6.033-86.989-17.226-127.62l0.794 3.378zM5.21 479.061h-5.21c0 0.219-0.001 0.478-0.001 0.737 0 43.91 5.85 86.454 16.814 126.894l-0.782-3.388 77.351-20.44c-8.402-30.638-13.229-65.817-13.229-102.123 0-0.591 0.001-1.181 0.004-1.771v0.091zM867.695 584.066c-10.012 36.714-23.704 68.813-41.101 98.476l1.023-1.887 69.335 40.078c19.779-33.307 36.337-71.789 47.688-112.443l0.806-3.383zM133.461 679.452l-69.736 40.078c22.006 37.971 47.24 70.733 76.17 99.816l-0.021-0.021 56.911-57.312c-23.99-24.070-44.965-51.169-62.295-80.668l-1.029-1.894zM761.487 763.216c-23.436 24.047-49.736 45.12-78.398 62.72l-1.759 1.004 40.078 69.335c37.958-22.042 70.716-47.272 99.822-76.176l-0.028 0.027zM280.548 825.738l-40.078 69.335c32.959 19.722 71.028 36.27 111.257 47.678l3.367 0.816 20.841-77.351c-36.29-10.258-67.963-24.065-97.227-41.494l1.841 1.015zM583.54 866.618c-30.634 8.4-65.809 13.226-102.111 13.226-0.172 0-0.344 0-0.516 0h0.026v80.157c43.751-0.009 86.132-5.859 126.411-16.812l-3.37 0.781zM860.881 149.617l100.997 43.285c7.674 3.059 12.998 10.426 12.998 19.037s-5.324 15.978-12.861 18.989l-0.138 0.049-329.043 104.604c-1.841 0.603-3.96 0.951-6.161 0.951-11.289 0-20.44-9.151-20.44-20.44 0-2.2 0.348-4.319 0.991-6.305l-0.041 0.145 104.604-329.043c3.059-7.674 10.426-12.998 19.037-12.998s15.978 5.324 18.989 12.861l0.049 0.138 41.281 97.39 137.869-137.869c3.696-3.684 8.796-5.962 14.428-5.962s10.732 2.278 14.429 5.962l40.077 40.077c3.684 3.696 5.962 8.796 5.962 14.428s-2.278 10.732-5.962 14.429l0.001-0.001z" />
<glyph unicode="&#xe90f;" glyph-name="select-polygon" d="M875.914 184.911l98.462 42.535c7.541 3.006 12.773 10.246 12.773 18.708s-5.232 15.701-12.638 18.66l-0.135 0.048-323.348 102.794c-1.809 0.592-3.892 0.934-6.054 0.934-11.093 0-20.086-8.993-20.086-20.086 0-2.162 0.342-4.245 0.974-6.196l-0.040 0.142 102.794-323.348c3.006-7.541 10.246-12.773 18.708-12.773s15.701 5.232 18.66 12.638l0.048 0.135 42.535 98.462 135.483-135.483c3.632-3.62 8.644-5.859 14.178-5.859s10.546 2.238 14.179 5.859l39.384 39.384c3.62 3.632 5.859 8.644 5.859 14.178s-2.238 10.546-5.859 14.179l0.001-0.001zM728.615 815.852l-26.388 45.686h-52.775v78.769h98.068l49.231-85.071-68.135-39.385zM448.197 940.308h100.825v-78.769h-100.825v78.769zM268.209 815.852l-68.135 39.385 49.231 85.071h98.068v-78.769h-52.775l-26.388-45.686zM99.557 680.864l50.397 87.325 68.223-39.373-50.397-87.325-68.223 39.373zM49.231 423.582l-49.231 85.071 49.231 85.071 68.135-39.385-26.388-45.686 26.388-45.686-68.135-39.385zM99.883 334.21l68.529 39.385 50.412-87.717-68.529-39.385-50.412 87.717zM347.372 76.997h-98.068l-49.231 85.071 68.135 39.385 26.388-45.686h52.775v-78.769zM448.197 155.766h100.825v-78.769h-100.825v78.769zM947.594 423.582l-68.135 39.385 26.388 45.686-26.388 45.686 68.135 39.385 49.231-85.071-49.231-85.071zM778.794 728.663l68.223 39.373 50.397-87.325-68.223-39.373-50.397 87.325z" />
<glyph unicode="&#xe910;" glyph-name="select-rectangle" horiz-adv-x="1015" d="M863.828 161.255l105.654 45.643c8.092 3.226 13.707 10.994 13.707 20.074s-5.615 16.848-13.561 20.023l-0.145 0.051-346.968 110.303c-1.942 0.636-4.176 1.002-6.496 1.002-11.904 0-21.553-9.65-21.553-21.553 0-2.32 0.367-4.555 1.045-6.649l-0.043 0.153 110.303-346.968c3.226-8.092 10.994-13.707 20.074-13.707s16.848 5.615 20.023 13.561l0.051 0.145 45.643 105.654 145.38-145.38c3.898-3.885 9.275-6.287 15.214-6.287s11.316 2.402 15.215 6.287l42.261 42.261c3.885 3.898 6.287 9.275 6.287 15.214s-2.402 11.316-6.287 15.215l0.001-0.001zM420.081 173.511h147.916v-84.523h-147.916v84.523zM182.57 173.511h203.279v-84.523h-203.279v84.523zM147.916 88.987h-147.916v147.916h84.523v-63.392h63.392v-84.523zM84.523 283.813h-84.523v217.225h84.523zM84.523 548.371h-84.523v216.38h84.523zM84.523 812.084h-84.523v147.916h147.916v-84.523h-63.392v-63.392zM676.187 875.477h-216.802v84.523h216.802zM411.629 875.477h-216.38v84.523h216.38zM871.013 812.084h-84.523v63.392h-63.392v84.523h147.916v-147.916zM786.489 773.203h84.523v-207.927h-84.523v207.927zM786.489 526.818h84.523v-147.916h-84.523v147.916z" />
<glyph unicode="&#xe911;" glyph-name="select" d="M656.384 481.792l256 110.592c19.506 7.525 33.093 26.121 33.093 47.891 0 23.474-15.797 43.259-37.341 49.302l-0.36 0.086-840.192 270.336c-6.118 2.789-13.268 4.415-20.799 4.415-28.277 0-51.2-22.923-51.2-51.2 0-7.531 1.626-14.681 4.545-21.121l-0.131 0.322 270.336-840.704c6.13-21.904 25.914-37.701 49.389-37.701 21.77 0 40.367 13.587 47.773 32.744l0.119 0.35 110.592 256 352.256-352.256c9.304-9.509 22.267-15.405 36.608-15.405s27.304 5.896 36.599 15.396l104.969 104.969c9.509 9.304 15.405 22.267 15.405 36.608s-5.896 27.304-15.396 36.599l-0.009 0.009z" />
<glyph unicode="&#xe912;" glyph-name="surface" d="M715.33-64.445h-715.33v715.33h715.33zM10.69 838.403l117.143 114.916c3.746 3.974 9.045 6.448 14.921 6.448s11.176-2.474 14.912-6.438l0.010-0.010c4.096-3.685 6.661-9.004 6.661-14.921s-2.564-11.236-6.643-14.905l-0.018-0.016c-17.816-18.262-35.633-36.078-53.449-53.895l-10.69-12.026h530.039l-44.541 44.541c-7.127 7.127-14.699 14.253-21.825 21.825-4.044 3.965-6.551 9.484-6.551 15.589s2.507 11.625 6.547 15.586l0.004 0.003c3.889 3.212 8.924 5.16 14.415 5.16 6.63 0 12.596-2.84 16.749-7.37l0.015-0.017c11.135-10.69 21.825-22.271 33.406-32.96l81.956-79.729c-4.009-5.345-6.236-8.463-8.908-11.135l-103.335-105.562c-12.472-12.472-23.607-13.362-32.96-3.563s-8.017 20.934 4.009 32.96l61.021 61.912h-534.493l57.903-55.676c4.558-4.279 8.655-8.941 12.277-13.969l0.194-0.284c2.454-3.082 3.937-7.031 3.937-11.327 0-5.643-2.559-10.688-6.58-14.038l-0.029-0.024c-3.306-3.314-7.878-5.364-12.928-5.364-3.819 0-7.365 1.172-10.296 3.177l0.063-0.040h-2.227zM879.687 24.637v534.493l-44.541-42.314c-8.017-8.017-15.589-16.035-24.052-23.607-3.617-4.229-8.958-6.892-14.921-6.892s-11.304 2.663-14.899 6.865l-0.022 0.027c-4.096 3.685-6.661 9.004-6.661 14.921s2.564 11.236 6.643 14.905l0.018 0.016c25.388 26.279 51.668 51.668 77.502 77.947 12.026 12.026 22.716 25.388 35.187 39.642l16.926-15.144 102.445-102.445c3.667-3.722 5.931-8.834 5.931-14.476 0-11.394-9.236-20.63-20.63-20.63-5.752 0-10.955 2.354-14.696 6.152l-0.002 0.003c-14.253 13.362-27.615 27.17-41.423 41.423l-23.607 24.943v-534.493l26.279 25.834c13.362 13.362 26.725 27.17 40.532 40.087 3.488 2.839 7.986 4.559 12.886 4.559 11.316 0 20.489-9.173 20.489-20.489 0-4.565-1.493-8.781-4.017-12.187l0.039 0.055c-38.305-39.196-77.502-78.392-117.143-118.479l-19.598 18.262-95.318 95.318c-11.135 11.581-12.472 24.498-4.009 33.406s22.271 6.681 33.406-4.454z" />
<glyph unicode="&#xe913;" glyph-name="text-arrow" d="M542.72 645.677l58.323-47.193c2.477-1.974 4.051-4.992 4.051-8.376 0-0.343-0.016-0.681-0.048-1.016l0.003 0.043c-0.165-4.292-1.824-8.167-4.468-11.149l0.016 0.018-394.908-479.054 67.228-55.652c2.578-2.139 4.208-5.343 4.208-8.928 0-2.121-0.571-4.109-1.567-5.819l0.030 0.055c-2.105-5.727-6.643-10.12-12.328-11.982l-0.139-0.039-226.616-60.55c-1.487-0.786-3.249-1.248-5.12-1.248s-3.633 0.461-5.181 1.277l0.061-0.029c-2.63 2.139-4.297 5.375-4.297 9.001 0 0.913 0.106 1.801 0.305 2.653l-0.015-0.078 15.137 235.52c0.384 6.475 4.008 12.026 9.261 15.090l0.089 0.048c2.009 1.563 4.567 2.506 7.346 2.506s5.337-0.943 7.373-2.526l-0.027 0.020 67.228-55.652 394.463 478.609c2.321 3.395 5.706 5.914 9.669 7.091l0.126 0.032c0.728 0.177 1.564 0.278 2.423 0.278 2.86 0 5.458-1.124 7.376-2.954l-0.004 0.004zM988.383 960l6.678-146.031h-17.363c-1.552 20.914-6.48 40.286-14.247 58.138l0.446-1.15c-8.562 16.693-21.528 30.088-37.376 38.939l-0.467 0.24c-15.644 6.955-33.895 11.005-53.091 11.005-3.251 0-6.475-0.116-9.668-0.345l0.429 0.025h-89.043v-476.383c-0.559-4.482-0.879-9.67-0.879-14.932 0-20.68 4.93-40.208 13.678-57.474l-0.334 0.726c12.4-12.001 29.32-19.397 47.968-19.397 2.078 0 4.135 0.092 6.166 0.272l-0.263-0.019h21.816v-16.918h-261.788v16.918h22.261c1.871-0.196 4.041-0.309 6.238-0.309 20.197 0 38.182 9.471 49.756 24.213l0.103 0.137c6.869 15.955 10.864 34.527 10.864 54.033 0 4.646-0.227 9.24-0.67 13.769l0.045-0.574v475.937h-77.023c-3.942 0.265-8.545 0.417-13.183 0.417-17.283 0-34.075-2.1-50.136-6.058l1.433 0.299c-17.15-6.732-31.177-18.319-40.759-33.062l-0.201-0.33c-11.945-19.152-19.305-42.259-20.030-67.031l-0.005-0.197h-17.809l7.569 145.141z" />
<glyph unicode="&#xe914;" glyph-name="text" d="M908.126 960l11.318-234.442h-30.181c-2.803 32.529-10.662 62.525-22.811 90.212l0.714-1.824c-13.197 26.648-33.324 48.16-58.051 62.68l-0.694 0.377c-26.721 13.028-58.137 20.645-91.332 20.645-2.945 0-5.875-0.060-8.791-0.179l0.418 0.014h-142.821v-763.688c-0.893-7.172-1.402-15.472-1.402-23.891 0-33.123 7.884-64.405 21.879-92.072l-0.535 1.167c19.696-18.46 46.262-29.798 75.475-29.798 4.359 0 8.66 0.252 12.888 0.744l-0.515-0.049h34.493v-27.486h-423.074v27.486h35.571c3.084-0.333 6.66-0.523 10.282-0.523 32.263 0 61.004 15.079 79.56 38.575l0.163 0.214c10.892 25.423 17.225 55.009 17.225 86.073 0 7.647-0.384 15.205-1.133 22.655l0.076-0.939v761.533h-120.724c-4.774 0.243-10.365 0.382-15.989 0.382-29.749 0-58.593-3.875-86.054-11.148l2.338 0.526c-27.567-10.873-50.094-29.577-65.427-53.357l-0.325-0.538c-19.317-30.663-31.206-67.727-32.33-107.486l-0.007-0.303h-27.486l11.857 234.442z" />
<glyph unicode="&#xe915;" glyph-name="unselect" d="M925.607 949.76l-66.783-66.783-67.228 66.783c-6.371 6.402-15.189 10.364-24.932 10.364s-18.561-3.962-24.931-10.362l-16.029-16.029c-6.402-6.371-10.364-15.189-10.364-24.932s3.962-18.561 10.362-24.931l66.784-66.784-66.783-66.783c-6.402-6.371-10.364-15.189-10.364-24.932s3.962-18.561 10.362-24.931l16.029-16.029c6.371-6.402 15.189-10.364 24.932-10.364s18.561 3.962 24.931 10.362l66.784 66.784 66.783-66.783c6.371-6.402 15.189-10.364 24.932-10.364s18.561 3.962 24.931 10.362l16.029 16.029c6.402 6.371 10.364 15.189 10.364 24.932s-3.962 18.561-10.362 24.931l-66.784 66.784 66.783 66.783c6.402 6.371 10.364 15.189 10.364 24.932s-3.962 18.561-10.362 24.931l-0.001 0.001-15.583 16.028c-6.371 6.402-15.189 10.364-24.932 10.364s-18.561-3.962-24.931-10.362l-0.001-0.001zM540.049 374.539l202.129 89.043c14.582 6.485 24.565 20.845 24.565 37.536 0 18.197-11.866 33.622-28.282 38.96l-0.29 0.081-662.483 209.697c-4.369 1.734-9.431 2.74-14.729 2.74-22.622 0-40.96-18.338-40.96-40.96 0-4.809 0.829-9.424 2.351-13.711l-0.089 0.286 212.814-662.929c5.42-16.706 20.845-28.572 39.042-28.572 16.691 0 31.050 9.983 37.432 24.305l0.104 0.26 89.043 202.129 277.816-277.816c7.41-7.398 17.64-11.973 28.939-11.973s21.529 4.575 28.94 11.973l82.809 82.809c7.398 7.41 11.973 17.64 11.973 28.939s-4.575 21.529-11.973 28.94l0.001-0.001z" />
<glyph unicode="&#xe916;" glyph-name="zoom-in" horiz-adv-x="1008" d="M410.608 355.011h-410.608v183.737h410.608v421.252h185.978v-421.252h411.729v-183.737h-411.729v-419.011h-185.978z" />
<glyph unicode="&#xe917;" glyph-name="zoom-out" d="M0 338.773v194.56h1024v-194.56z" />
<glyph unicode="&#xe918;" glyph-name="legend" horiz-adv-x="1183" d="M0 629.829l591.384 330.171 591.384-330.171-591.384-330.171zM0 447.943l69.411 58.702 521.973-280.705 521.293 281.895 70.375-59.949-591.667-330.001zM0 266.058l69.411 58.759 521.973-280.761 521.293 281.951 70.375-60.005-591.667-330.001z" />
<glyph unicode="&#xe919;" glyph-name="zoom-all" horiz-adv-x="989" d="M16.625-48.723c9.764-9.797 23.27-15.859 38.192-15.859s28.428 6.062 38.191 15.857l0.002 0.002 245.329 255.214c65.15-45.835 146.139-73.252 233.531-73.252 1.146 0 2.291 0.005 3.435 0.014l-0.175-0.001c0.74-0.005 1.616-0.008 2.492-0.008 228.548 0 413.824 185.275 413.824 413.824s-185.275 413.824-413.824 413.824c-228.548 0-413.824-185.275-413.824-413.824 0-101.572 36.594-194.597 97.317-266.61l-0.51 0.621-245.778-253.866c-9.138-9.64-14.757-22.695-14.757-37.062 0-15.264 6.343-29.047 16.537-38.857l0.017-0.017zM880.667 546.626c0-168.744-136.794-305.538-305.538-305.538s-305.538 136.794-305.538 305.538c0 168.744 136.794 305.538 305.538 305.538v0c168.641-0.255 305.282-136.897 305.537-305.513v-0.024zM591.754 566.396l134.796-134.796v11.682s0 0 0 0c-0.143 1.060-0.225 2.286-0.225 3.531 0 15.385 12.472 27.858 27.858 27.858s27.858-12.472 27.858-27.858c0-1.245-0.082-2.47-0.24-3.672l0.015 0.141v-76.384c0-15.385-12.472-27.858-27.858-27.858v0h-79.979c-1.060-0.143-2.286-0.225-3.531-0.225-15.385 0-27.858 12.472-27.858 27.858s12.472 27.858 27.858 27.858c1.245 0 2.47-0.082 3.672-0.24l-0.141 0.015h11.682l-269.592 269.592v-11.682s0 0 0 0c0.143-1.060 0.225-2.286 0.225-3.531 0-15.385-12.472-27.858-27.858-27.858s-27.858 12.472-27.858 27.858c0 1.245 0.082 2.47 0.24 3.672l-0.015-0.141v74.587c0 15.385 12.472 27.858 27.858 27.858h79.080c1.060 0.143 2.286 0.225 3.531 0.225 15.385 0 27.858-12.472 27.858-27.858s-12.472-27.858-27.858-27.858c-1.245 0-2.47 0.082-3.672 0.24l0.141-0.015h-11.682zM591.754 527.305l-134.796-134.796h12.132c1.060 0.143 2.286 0.225 3.531 0.225 15.385 0 27.858-12.472 27.858-27.858s-12.472-27.858-27.858-27.858c-1.245 0-2.47 0.082-3.672 0.24l0.141-0.015h-77.283c-15.385 0-27.858 12.472-27.858 27.858v0 79.979s0 0 0 0c-0.143 1.060-0.225 2.286-0.225 3.531 0 15.385 12.472 27.858 27.858 27.858s27.858-12.472 27.858-27.858c0-1.245-0.082-2.47-0.24-3.672l0.015 0.141v-11.682l269.592 269.592h-14.828c-1.060-0.143-2.286-0.225-3.531-0.225-15.385 0-27.858 12.472-27.858 27.858s12.472 27.858 27.858 27.858c1.245 0 2.47-0.082 3.672-0.24l-0.141 0.015h78.631c15.385 0 27.858-12.472 27.858-27.858v0-81.776s0 0 0 0c0.143-1.060 0.225-2.286 0.225-3.531 0-15.385-12.472-27.858-27.858-27.858s-27.858 12.472-27.858 27.858c0 1.245 0.082 2.47 0.24 3.672l-0.015-0.141v11.233z" />
<glyph unicode="&#xe91a;" glyph-name="search2" d="M708.887 526.662c0.017 1.103 0.026 2.404 0.026 3.708 0 74.894-31.032 142.54-80.94 190.78l-0.075 0.072c-48.35 50.256-116.177 81.475-191.295 81.475-1.148 0-2.294-0.007-3.439-0.022l0.174 0.002c-1.239 0.021-2.702 0.033-4.167 0.033-74.897 0-142.545-31.035-190.787-80.947l-0.072-0.075c-49.987-48.313-81.022-115.962-81.022-190.859 0-1.465 0.012-2.927 0.036-4.386l-0.003 0.22c-0.017-1.103-0.026-2.404-0.026-3.708 0-74.894 31.032-142.54 80.94-190.78l0.075-0.072c48.313-49.983 115.959-81.015 190.852-81.015 1.304 0 2.605 0.009 3.905 0.028l-0.197-0.002c1.103-0.017 2.404-0.026 3.708-0.026 74.894 0 142.54 31.032 190.78 80.94l0.072 0.075c50.256 48.35 81.475 116.177 81.475 191.295 0 1.148-0.007 2.294-0.022 3.439l0.002-0.174zM1024 14.662c-0.77-43.131-35.531-77.892-78.589-78.661l-0.073-0.001c-0.563-0.016-1.225-0.024-1.89-0.024-21.105 0-40.12 8.946-53.459 23.254l-0.040 0.043-211.316 209.455c-67.379-47.764-151.28-76.353-241.858-76.353-1.372 0-2.742 0.007-4.111 0.020l0.209-0.002c-0.532-0.002-1.161-0.004-1.79-0.004-60.223 0-117.526 12.5-169.457 35.046l2.753-1.064c-106.057 44.053-188.675 126.67-231.69 229.92l-1.037 2.808c-21.572 49.655-34.121 107.493-34.121 168.262s12.549 118.607 35.197 171.064l-1.077-2.802c44.053 106.057 126.67 188.675 229.92 231.69l2.808 1.037c49.655 21.572 107.493 34.121 168.262 34.121s118.607-12.549 171.064-35.197l-2.802 1.077c106.057-44.053 188.675-126.67 231.69-229.92l1.037-2.808c21.482-49.178 33.982-106.482 33.982-166.705 0-0.629-0.001-1.258-0.004-1.887v0.097c0.012-1.159 0.018-2.53 0.018-3.902 0-90.578-28.589-174.478-77.235-243.171l0.882 1.313 210.851-210.851c13.549-13.629 21.925-32.415 21.925-53.157 0-0.949-0.018-1.893-0.052-2.833l0.004 0.136z" />
<glyph unicode="&#xe91b;" glyph-name="arrow-down" d="M957.143 484.571q0-30.286-21.143-51.429l-372-372.571q-22.286-21.143-52-21.143-30.286 0-51.429 21.143l-372 372.571q-21.714 20.571-21.714 51.429 0 30.286 21.714 52l42.286 42.857q22.286 21.143 52 21.143 30.286 0 51.429-21.143l168-168v402.286q0 29.714 21.714 51.429t51.429 21.714h73.143q29.714 0 51.429-21.714t21.714-51.429v-402.286l168 168q21.143 21.143 51.429 21.143 29.714 0 52-21.143l42.857-42.857q21.143-22.286 21.143-52z" />
<glyph unicode="&#xe91c;" glyph-name="angle-down" d="M797.143 539.429q0-7.429-5.714-13.143l-266.286-266.286q-5.714-5.714-13.143-5.714t-13.143 5.714l-266.286 266.286q-5.714 5.714-5.714 13.143t5.714 13.143l28.571 28.571q5.714 5.714 13.143 5.714t13.143-5.714l224.571-224.571 224.571 224.571q5.714 5.714 13.143 5.714t13.143-5.714l28.571-28.571q5.714-5.714 5.714-13.143z" />
<glyph unicode="&#xe91d;" glyph-name="choose-point-for-destination" horiz-adv-x="770" d="M536.732 656.271c0.025 1.001 0.039 2.179 0.039 3.361 0 40.619-16.612 77.359-43.412 103.796l-0.016 0.016c-26.453 26.817-63.192 43.429-103.812 43.429-1.182 0-2.361-0.014-3.536-0.042l0.174 0.003c-1.001 0.025-2.179 0.039-3.361 0.039-40.619 0-77.359-16.612-103.796-43.412l-0.016-0.016c-28.088-26.63-45.565-64.212-45.565-105.876 0-0.456 0.002-0.912 0.006-1.367l-0.001 0.070c-0.025-1.001-0.039-2.179-0.039-3.361 0-40.619 16.612-77.359 43.412-103.796l0.016-0.016c26.453-26.817 63.192-43.429 103.812-43.429 1.182 0 2.361 0.014 3.536 0.042l-0.174-0.003c1.001-0.025 2.179-0.039 3.361-0.039 40.619 0 77.359 16.612 103.796 43.412l0.016 0.016c28.088 26.63 45.565 64.212 45.565 105.876 0 0.456-0.002 0.912-0.006 1.367l0.001-0.070zM688.163 656.271c0.1-2.633 0.157-5.726 0.157-8.832 0-35.047-7.239-68.402-20.303-98.654l0.621 1.615-215.647-458.197c-6.314-12.969-15.977-23.468-27.878-30.625l-0.325-0.181c-11.373-7.026-25.159-11.189-39.919-11.189s-28.546 4.163-40.25 11.38l0.331-0.19c-12.036 7.267-21.454 17.802-27.162 30.379l-0.174 0.428-216.949 458.197c-11.946 28.116-18.889 60.818-18.889 95.142 0 3.773 0.084 7.527 0.25 11.259l-0.019-0.53c-0.054 2.090-0.084 4.55-0.084 7.018 0 82.365 34.101 156.766 88.954 209.854l0.080 0.077c52.972 53.634 126.507 86.853 207.801 86.853 2.301 0 4.597-0.027 6.885-0.080l-0.34 0.006c1.949 0.047 4.244 0.073 6.545 0.073 81.294 0 154.829-33.219 207.771-86.823l0.029-0.030c54.681-53.129 88.61-127.362 88.61-209.52 0-2.612-0.034-5.216-0.102-7.812l0.008 0.383zM385.302-64c-191.349 0-384.868 43.39-384.868 130.169s193.519 130.169 385.302 130.169 385.302-43.39 385.302-130.169-194.386-130.169-385.736-130.169zM385.302 152.949c-208.705 0-341.478-51.634-341.478-86.78s133.207-86.78 341.912-86.78 341.912 51.634 341.912 86.78-134.075 88.081-342.346 88.081z" />
<glyph unicode="&#xe91e;" glyph-name="export-polygon-selection-as-CSV" horiz-adv-x="1010" d="M415.237 37.811l21.456-37.443 43.333 0.421v-64.368l-80.355-0.421-39.967 69.417 55.533 32.394zM562.141 0.733l82.038 0.115 0.090-64.368-82.038-0.115-0.090 64.368zM790.929 38.232l55.954-31.974-40.388-69.417-79.934-0.421v64.368h42.912l21.456 37.443zM832.155 109.293l40.92 71.104 55.789-32.106-40.92-71.104-55.789 32.106zM969.729 358.81l39.967-69.417-39.967-69.417-55.954 31.974 21.456 37.443-21.456 37.022 55.954 32.394zM834.703 465.493l56 32.184 41.019-71.373-56-32.184-41.019 71.373zM725.719 641.525h79.934l40.388-69.417-55.533-32.394-21.877 37.443h-42.912v64.368zM561.247 641.047l82.038 0.115 0.090-64.368-82.038-0.115-0.090 64.368zM236.016 357.969l55.533-32.394-21.456-37.022 21.456-37.443-55.533-31.974-40.388 69.417 40.388 69.417zM277.476 147.879l55.705 32.252 41.106-70.997-55.705-32.252-41.106 70.997zM420.707 687.803c-0.256-0.006-0.558-0.009-0.86-0.009-11.023 0-20.992 4.51-28.164 11.785l-0.005 0.005c-7.251 7.515-11.733 17.744-11.78 29.020v231.398h-337.827c-0.704 0.047-1.526 0.073-2.355 0.073-10.83 0-20.598-4.547-27.499-11.836l-0.016-0.017c-7.546-7.214-12.237-17.36-12.237-28.602 0-0.594 0.013-1.185 0.039-1.772l-0.003 0.084v-679.862c-0.002-0.136-0.003-0.297-0.003-0.458 0-11.226 4.677-21.359 12.189-28.557l0.014-0.013c6.913-7.273 16.66-11.797 27.463-11.797 0.403 0 0.804 0.006 1.204 0.019l-0.058-0.001h572.582c0.256-0.006 0.558-0.009 0.86-0.009 11.023 0 20.992 4.51 28.164 11.785l0.005 0.005c7.251 7.515 11.733 17.744 11.78 29.020v449.744zM179.642 395.832c15.309 0.018 29.779 3.587 42.638 9.929l-0.567-0.253 5.89-26.505c-15.393-7.204-33.423-11.408-52.436-11.408-1.237 0-2.47 0.018-3.698 0.053l0.18-0.004c-1.332-0.068-2.891-0.108-4.46-0.108-51.117 0-92.555 41.438-92.555 92.555 0 2.407 0.092 4.792 0.272 7.152l-0.019-0.314c-0.065 1.335-0.101 2.9-0.101 4.473 0 54.602 44.264 98.866 98.866 98.866 2.553 0 5.082-0.097 7.586-0.287l-0.333 0.020c0.527 0.009 1.149 0.014 1.773 0.014 17.040 0 33.21-3.725 47.741-10.404l-0.712 0.293-7.993-27.346c-10.879 5.909-23.821 9.382-37.575 9.382-1.582 0-3.152-0.046-4.711-0.137l0.215 0.010c-0.579 0.018-1.26 0.028-1.943 0.028-37.176 0-67.313-30.137-67.313-67.313 0-2.083 0.095-4.145 0.28-6.18l-0.019 0.262c-0.168-1.777-0.264-3.843-0.264-5.932 0-36.944 29.949-66.892 66.892-66.892 0.832 0 1.661 0.015 2.486 0.045l-0.119-0.003zM311.323 367.645c-0.869-0.026-1.891-0.040-2.916-0.040-19.019 0-36.868 5.008-52.3 13.777l0.524-0.274 8.835 26.925c13.213-8.621 29.3-13.9 46.593-14.302l0.105-0.002c25.663 0 37.864 13.042 37.864 29.029s-10.097 26.084-36.181 35.76c-34.919 12.2-51.747 31.553-51.747 55.113 1.606 31.941 27.894 57.231 60.090 57.231 2.546 0 5.055-0.158 7.518-0.465l-0.294 0.030c0.917 0.031 1.995 0.049 3.077 0.049 16.926 0 32.828-4.384 46.633-12.079l-0.488 0.25-8.835-26.084c-11.014 7.126-24.475 11.362-38.926 11.362-0.218 0-0.436-0.001-0.654-0.003h0.033c-21.035 0-32.394-11.78-32.394-26.505s11.359-23.139 36.601-32.815c34.077-13.042 51.326-29.87 51.326-58.899s-28.187-58.058-74.465-58.058zM512.841 371.852h-33.657l-74.044 194.366h37.864l38.284-109.384c6.311-17.67 11.359-33.657 15.566-49.643v0c4.207 15.987 10.097 31.974 16.408 49.643l37.864 109.384h37.864zM625.17 757.64l-173.752 173.752c-4.502 4.261-9.454 8.143-14.747 11.54l-0.399 0.24v-201.098h200.677c-3.448 5.908-7.349 11.014-11.797 15.584l0.017-0.018z" />
<glyph unicode="&#xe91f;" glyph-name="id-point" d="M512 848c221.064 0 400-178.902 400-400 0-221.064-178.902-400-400-400-221.064 0-400 178.902-400 400 0 221.064 178.902 400 400 400zM512 944c-273.934 0-496-222.066-496-496s222.066-496 496-496 496 222.066 496 496-222.066 496-496 496zM512 608c-88.366 0-160-71.634-160-160s71.634-160 160-160 160 71.634 160 160-71.634 160-160 160z" />
<glyph unicode="&#xe920;" glyph-name="internet-drawing" d="M959.936 404.864v395.168c0.864 8.704-6.56 54.88-67.264 91.232-60.288 36.832-169.536 68.608-380.608 68.736-211.168-0.128-320.416-31.904-380.768-68.736-60.64-36.32-68.096-82.496-67.232-91.232v-727.68c-1.12-11.296 9.76-52.096 69.632-80.8 59.744-29.632 167.648-55.36 378.304-55.552 63.296 0.064 117.12 2.432 163.328 6.528 19.584-4.192 39.84-6.528 60.64-6.528 159.072 0.064 287.968 128.96 288.032 288.032-0.032 68.576-24.064 131.392-64.064 180.832zM512 0c-205.248-0.224-305.312 26.272-349.568 48.768-22.208 11.2-31.584 20.736-34.4 24.96-0.576 0.864 0.288 1.504 0.064 1.984l-0.096 635.232c1.184-0.736 2.080-1.504 3.296-2.208 60.352-36.768 169.6-68.512 380.768-68.736 211.072 0.192 320.32 31.968 380.64 68.704 1.184 0.736 2.112 1.536 3.296 2.24v-247.52c-45.792 30.624-100.8 48.576-160.032 48.576-159.104-0.064-287.904-128.864-287.968-287.968 0-90.304 41.632-170.816 106.624-223.616-13.76-0.256-27.744-0.448-42.624-0.416zM735.968 0.064c-123.68 0.192-223.712 100.256-224 223.968 0.288 123.68 100.32 223.712 224 224 123.712-0.288 223.776-100.32 223.968-224-0.192-123.712-100.256-223.776-223.968-223.968zM704 96h-96v96zM896.012 288.017l-159.997-159.997-96.007 96.007 159.997 159.997 96.007-96.007z" />
<glyph unicode="&#xe921;" glyph-name="calendar" d="M320 576h128v-128h-128zM512 576h128v-128h-128zM704 576h128v-128h-128zM128 192h128v-128h-128zM320 192h128v-128h-128zM512 192h128v-128h-128zM320 384h128v-128h-128zM512 384h128v-128h-128zM704 384h128v-128h-128zM128 384h128v-128h-128zM832 960v-64h-128v64h-448v-64h-128v64h-128v-1024h960v1024h-128zM896 0h-832v704h832v-704z" />
<glyph unicode="&#xe922;" glyph-name="edit" horiz-adv-x="1152" d="M804.6 270.2l64 64c10 10 27.4 3 27.4-11.4v-290.8c0-53-43-96-96-96h-704c-53 0-96 43-96 96v704c0 53 43 96 96 96h547c14.2 0 21.4-17.2 11.4-27.4l-64-64c-3-3-7-4.6-11.4-4.6h-483v-704h704v227c0 4.2 1.6 8.2 4.6 11.2zM1117.8 673.8l-525.2-525.2-180.8-20c-52.4-5.8-97 38.4-91.2 91.2l20 180.8 525.2 525.2c45.8 45.8 119.8 45.8 165.4 0l86.4-86.4c45.8-45.8 45.8-120 0.2-165.6zM920.2 612l-116.2 116.2-371.6-371.8-14.6-130.6 130.6 14.6 371.8 371.6zM1049.8 771.4l-86.4 86.4c-8.2 8.2-21.6 8.2-29.6 0l-61.8-61.8 116.2-116.2 61.8 61.8c8 8.4 8 21.6-0.2 29.8z" />
<glyph unicode="&#xe962;" glyph-name="floppy-disk" d="M896 960h-896v-1024h1024v896l-128 128zM512 832h128v-256h-128v256zM896 64h-768v768h64v-320h576v320h74.978l53.022-53.018v-714.982z" />
</font>
</defs>
</svg>
